<svg xmlns="http://www.w3.org/2000/svg" xmlns:xlink="http://www.w3.org/1999/xlink" width="900" height="434.2"><rect width="900" height="434.2" rx="0" ry="0" class="a"/><svg height="434.2" viewBox="0 0 90 43.42" width="900" xmlns="http://www.w3.org/2000/svg" xmlns:xlink="http://www.w3.org/1999/xlink"><style>@keyframes h{0%{transform:translateX(0)}.2%{transform:translateX(-90px)}9.7%{transform:translateX(-180px)}10.6%{transform:translateX(-270px)}11.4%{transform:translateX(-360px)}12.4%{transform:translateX(-450px)}13.8%{transform:translateX(-540px)}14.7%{transform:translateX(-630px)}17.3%{transform:translateX(-720px)}19.2%{transform:translateX(-810px)}20.7%{transform:translateX(-900px)}23%{transform:translateX(-990px)}25.1%{transform:translateX(-1080px)}27.6%{transform:translateX(-1170px)}29.4%{transform:translateX(-1260px)}30.8%{transform:translateX(-1350px)}32.5%{transform:translateX(-1440px)}34.2%{transform:translateX(-1530px)}35.2%{transform:translateX(-1620px)}36%{transform:translateX(-1710px)}36.5%{transform:translateX(-1800px)}37.4%{transform:translateX(-1890px)}38.8%{transform:translateX(-1980px)}39.7%{transform:translateX(-2070px)}40.8%{transform:translateX(-2160px)}41.8%{transform:translateX(-2250px)}42.9%{transform:translateX(-2340px)}44.3%{transform:translateX(-2430px)}45.2%{transform:translateX(-2520px)}47.3%{transform:translateX(-2610px)}50.3%{transform:translateX(-2700px)}50.7%{transform:translateX(-2790px)}to{transform:translateX(-2880px)}}.a{fill:#282d35}.c,.d,.e{white-space:pre}.c{fill:#a8cc8c;font-weight:700}.d,.e{fill:#b9c0cb}.e{fill:#71bef2;font-weight:700}</style><g font-family="Monaco,Consolas,Menlo,'Bitstream Vera Sans Mono','Powerline Symbols',monospace" font-size="1.67"><defs><symbol id="1"><text y="1.67" class="c">seb@departure</text><text x="13.026" y="1.67" class="d">:</text><text x="14.028" y="1.67" class="e">~/departure-demo</text><text x="30.06" y="1.67" class="d">$</text></symbol><symbol id="2"><text y="1.67" class="c">seb@departure</text><text x="13.026" y="1.67" class="d">:</text><text x="14.028" y="1.67" class="e">~/departure-demo</text><text x="30.06" y="1.67" class="d">$</text><text x="32.064" y="1.67" class="d">departure</text></symbol><symbol id="3"><text y="1.67" class="c">seb@departure</text><text x="13.026" y="1.67" class="d">:</text><text x="14.028" y="1.67" class="e">~/departure-demo</text><text x="30.06" y="1.67" class="d">$</text><text x="32.064" y="1.67" class="d">departure</text><text x="42.084" y="1.67" class="d">sncf</text></symbol><symbol id="4"><text y="1.67" class="c">seb@departure</text><text x="13.026" y="1.67" class="d">:</text><text x="14.028" y="1.67" class="e">~/departure-demo</text><text x="30.06" y="1.67" class="d">$</text><text x="32.064" y="1.67" class="d">departure</text><text x="42.084" y="1.67" class="d">sncf</text><text x="47.094" y="1.67" class="d">search</text></symbol><symbol id="5"><text y="1.67" class="c">seb@departure</text><text x="13.026" y="1.67" class="d">:</text><text x="14.028" y="1.67" class="e">~/departure-demo</text><text x="30.06" y="1.67" class="d">$</text><text x="32.064" y="1.67" class="d">departure</text><text x="42.084" y="1.67" class="d">sncf</text><text x="47.094" y="1.67" class="d">search</text><text x="54.108" y="1.67" class="d">paris</text></symbol><symbol id="6"><text x="2.004" y="1.67" class="d">stop</text><text x="7.014" y="1.67" class="d">area</text><text x="12.024" y="1.67" class="d">id</text><text x="16.032" y="1.67" class="d">name</text></symbol><symbol id="7"><text y="1.67" class="d">--------------</text><text x="16.032" y="1.67" class="d">---------------------------------------</text></symbol><symbol id="8"><text x="6.012" y="1.67" class="d">87113001</text><text x="16.032" y="1.67" class="d">Paris</text><text x="22.044" y="1.67" class="d">Est</text></symbol><symbol id="9"><text x="6.012" y="1.67" class="d">87271007</text><text x="16.032" y="1.67" class="d">Paris</text><text x="22.044" y="1.67" class="d">Gare</text><text x="27.054" y="1.67" class="d">du</text><text x="30.06" y="1.67" class="d">Nord</text></symbol><symbol id="10"><text x="6.012" y="1.67" class="d">87271023</text><text x="16.032" y="1.67" class="d">Paris</text><text x="22.044" y="1.67" class="d">Gare</text><text x="27.054" y="1.67" class="d">du</text><text x="30.06" y="1.67" class="d">Nord</text></symbol><symbol id="11"><text x="6.012" y="1.67" class="d">87271031</text><text x="16.032" y="1.67" class="d">Paris</text><text x="22.044" y="1.67" class="d">Gare</text><text x="27.054" y="1.67" class="d">du</text><text x="30.06" y="1.67" class="d">Nord</text></symbol><symbol id="12"><text x="6.012" y="1.67" class="d">87271510</text><text x="16.032" y="1.67" class="d">Villeparisis</text><text x="29.058" y="1.67" class="d">-</text><text x="31.062" y="1.67" class="d">Mitry-le-Neuf</text></symbol><symbol id="13"><text x="6.012" y="1.67" class="d">87381863</text><text x="16.032" y="1.67" class="d">Cormeilles-en-Parisis</text></symbol><symbol id="14"><text x="6.012" y="1.67" class="d">87384008</text><text x="16.032" y="1.67" class="d">Paris</text><text x="22.044" y="1.67" class="d">Saint-Lazare</text></symbol><symbol id="15"><text x="6.012" y="1.67" class="d">87391003</text><text x="16.032" y="1.67" class="d">Paris</text><text x="22.044" y="1.67" class="d">Montparnasse</text></symbol><symbol id="16"><text x="6.012" y="1.67" class="d">87391102</text><text x="16.032" y="1.67" class="d">Paris</text><text x="22.044" y="1.67" class="d">Montparnasse</text></symbol><symbol id="17"><text x="6.012" y="1.67" class="d">87547000</text><text x="16.032" y="1.67" class="d">Paris</text><text x="22.044" y="1.67" class="d">Austerlitz</text></symbol><symbol id="18"><text x="6.012" y="1.67" class="d">87547026</text><text x="16.032" y="1.67" class="d">Paris</text><text x="22.044" y="1.67" class="d">Austerlitz</text></symbol><symbol id="19"><text x="6.012" y="1.67" class="d">87686006</text><text x="16.032" y="1.67" class="d">Paris</text><text x="22.044" y="1.67" class="d">Gare</text><text x="27.054" y="1.67" class="d">de</text><text x="30.06" y="1.67" class="d">Lyon</text></symbol><symbol id="20"><text x="6.012" y="1.67" class="d">87686030</text><text x="16.032" y="1.67" class="d">Paris</text><text x="22.044" y="1.67" class="d">Gare</text><text x="27.054" y="1.67" class="d">de</text><text x="30.06" y="1.67" class="d">Lyon</text></symbol><symbol id="21"><text x="6.012" y="1.67" class="d">87686667</text><text x="16.032" y="1.67" class="d">Paris</text><text x="22.044" y="1.67" class="d">Bercy</text><text x="28.056" y="1.67" class="d">Bourgogne</text><text x="38.076" y="1.67" class="d">-</text><text x="40.08" y="1.67" class="d">Pays</text><text x="45.09" y="1.67" class="d">d&apos;Auvergne</text></symbol><symbol id="22"><text y="1.67" class="d">&gt;</text><text x="2.004" y="1.67" class="d">total:</text><text x="9.018" y="1.67" class="d">14</text></symbol><symbol id="a"><path fill="transparent" d="M0 0h90v20H0z"/></symbol><symbol id="b"><path fill="#6f7683" d="M0 0h1.102v2.171H0z"/></symbol></defs><path class="a" d="M0 0h90v43.42H0z"/><g style="animation-duration:9.392503s;animation-iteration-count:infinite;animation-name:h;animation-timing-function:steps(1,end)"><svg width="2970"><svg><use xlink:href="#a"/><use xlink:href="#b" x="-.004"/></svg><svg x="90"><use xlink:href="#a"/><use xlink:href="#b" x="31.996"/><use xlink:href="#1"/></svg><svg x="180"><use xlink:href="#a"/><use xlink:href="#b" x="32.996"/><text y="1.67" class="c">seb@departure</text><text x="13.026" y="1.67" class="d">:</text><text x="14.028" y="1.67" class="e">~/departure-demo</text><text x="30.06" y="1.67" class="d">$</text><text x="32.064" y="1.67" class="d">d</text></svg><svg x="270"><use xlink:href="#a"/><use xlink:href="#b" x="33.996"/><text y="1.67" class="c">seb@departure</text><text x="13.026" y="1.67" class="d">:</text><text x="14.028" y="1.67" class="e">~/departure-demo</text><text x="30.06" y="1.67" class="d">$</text><text x="32.064" y="1.67" class="d">de</text></svg><svg x="360"><use xlink:href="#a"/><use xlink:href="#b" x="34.996"/><text y="1.67" class="c">seb@departure</text><text x="13.026" y="1.67" class="d">:</text><text x="14.028" y="1.67" class="e">~/departure-demo</text><text x="30.06" y="1.67" class="d">$</text><text x="32.064" y="1.67" class="d">dep</text></svg><svg x="450"><use xlink:href="#a"/><use xlink:href="#b" x="35.996"/><text y="1.67" class="c">seb@departure</text><text x="13.026" y="1.67" class="d">:</text><text x="14.028" y="1.67" class="e">~/departure-demo</text><text x="30.06" y="1.67" class="d">$</text><text x="32.064" y="1.67" class="d">depa</text></svg><svg x="540"><use xlink:href="#a"/><use xlink:href="#b" x="36.996"/><text y="1.67" class="c">seb@departure</text><text x="13.026" y="1.67" class="d">:</text><text x="14.028" y="1.67" class="e">~/departure-demo</text><text x="30.06" y="1.67" class="d">$</text><text x="32.064" y="1.67" class="d">depar</text></svg><svg x="630"><use xlink:href="#a"/><use xlink:href="#b" x="37.996"/><text y="1.67" class="c">seb@departure</text><text x="13.026" y="1.67" class="d">:</text><text x="14.028" y="1.67" class="e">~/departure-demo</text><text x="30.06" y="1.67" class="d">$</text><text x="32.064" y="1.67" class="d">depart</text></svg><svg x="720"><use xlink:href="#a"/><use xlink:href="#b" x="38.996"/><text y="1.67" class="c">seb@departure</text><text x="13.026" y="1.67" class="d">:</text><text x="14.028" y="1.67" class="e">~/departure-demo</text><text x="30.06" y="1.67" class="d">$</text><text x="32.064" y="1.67" class="d">departu</text></svg><svg x="810"><use xlink:href="#a"/><use xlink:href="#b" x="39.996"/><text y="1.67" class="c">seb@departure</text><text x="13.026" y="1.67" class="d">:</text><text x="14.028" y="1.67" class="e">~/departure-demo</text><text x="30.06" y="1.67" class="d">$</text><text x="32.064" y="1.67" class="d">departur</text></svg><svg x="900"><use xlink:href="#a"/><use xlink:href="#b" x="40.996"/><use xlink:href="#2"/></svg><svg x="990"><use xlink:href="#a"/><use xlink:href="#b" x="41.996"/><use xlink:href="#2"/></svg><svg x="1080"><use xlink:href="#a"/><use xlink:href="#b" x="42.996"/><text y="1.67" class="c">seb@departure</text><text x="13.026" y="1.67" class="d">:</text><text x="14.028" y="1.67" class="e">~/departure-demo</text><text x="30.06" y="1.67" class="d">$</text><text x="32.064" y="1.67" class="d">departure</text><text x="42.084" y="1.67" class="d">s</text></svg><svg x="1170"><use xlink:href="#a"/><use xlink:href="#b" x="43.996"/><text y="1.67" class="c">seb@departure</text><text x="13.026" y="1.67" class="d">:</text><text x="14.028" y="1.67" class="e">~/departure-demo</text><text x="30.06" y="1.67" class="d">$</text><text x="32.064" y="1.67" class="d">departure</text><text x="42.084" y="1.67" class="d">sn</text></svg><svg x="1260"><use xlink:href="#a"/><use xlink:href="#b" x="44.996"/><text y="1.67" class="c">seb@departure</text><text x="13.026" y="1.67" class="d">:</text><text x="14.028" y="1.67" class="e">~/departure-demo</text><text x="30.06" y="1.67" class="d">$</text><text x="32.064" y="1.67" class="d">departure</text><text x="42.084" y="1.67" class="d">snc</text></svg><svg x="1350"><use xlink:href="#a"/><use xlink:href="#b" x="45.996"/><use xlink:href="#3"/></svg><svg x="1440"><use xlink:href="#a"/><use xlink:href="#b" x="46.996"/><use xlink:href="#3"/></svg><svg x="1530"><use xlink:href="#a"/><use xlink:href="#b" x="47.996"/><text y="1.67" class="c">seb@departure</text><text x="13.026" y="1.67" class="d">:</text><text x="14.028" y="1.67" class="e">~/departure-demo</text><text x="30.06" y="1.67" class="d">$</text><text x="32.064" y="1.67" class="d">departure</text><text x="42.084" y="1.67" class="d">sncf</text><text x="47.094" y="1.67" class="d">s</text></svg><svg x="1620"><use xlink:href="#a"/><use xlink:href="#b" x="48.996"/><text y="1.67" class="c">seb@departure</text><text x="13.026" y="1.67" class="d">:</text><text x="14.028" y="1.67" class="e">~/departure-demo</text><text x="30.06" y="1.67" class="d">$</text><text x="32.064" y="1.67" class="d">departure</text><text x="42.084" y="1.67" class="d">sncf</text><text x="47.094" y="1.67" class="d">se</text></svg><svg x="1710"><use xlink:href="#a"/><use xlink:href="#b" x="49.996"/><text y="1.67" class="c">seb@departure</text><text x="13.026" y="1.67" class="d">:</text><text x="14.028" y="1.67" class="e">~/departure-demo</text><text x="30.06" y="1.67" class="d">$</text><text x="32.064" y="1.67" class="d">departure</text><text x="42.084" y="1.67" class="d">sncf</text><text x="47.094" y="1.67" class="d">sea</text></svg><svg x="1800"><use xlink:href="#a"/><use xlink:href="#b" x="50.996"/><text y="1.67" class="c">seb@departure</text><text x="13.026" y="1.67" class="d">:</text><text x="14.028" y="1.67" class="e">~/departure-demo</text><text x="30.06" y="1.67" class="d">$</text><text x="32.064" y="1.67" class="d">departure</text><text x="42.084" y="1.67" class="d">sncf</text><text x="47.094" y="1.67" class="d">sear</text></svg><svg x="1890"><use xlink:href="#a"/><use xlink:href="#b" x="51.996"/><text y="1.67" class="c">seb@departure</text><text x="13.026" y="1.67" class="d">:</text><text x="14.028" y="1.67" class="e">~/departure-demo</text><text x="30.06" y="1.67" class="d">$</text><text x="32.064" y="1.67" class="d">departure</text><text x="42.084" y="1.67" class="d">sncf</text><text x="47.094" y="1.67" class="d">searc</text></svg><svg x="1980"><use xlink:href="#a"/><use xlink:href="#b" x="52.996"/><use xlink:href="#4"/></svg><svg x="2070"><use xlink:href="#a"/><use xlink:href="#b" x="53.996"/><use xlink:href="#4"/></svg><svg x="2160"><use xlink:href="#a"/><use xlink:href="#b" x="54.996"/><text y="1.67" class="c">seb@departure</text><text x="13.026" y="1.67" class="d">:</text><text x="14.028" y="1.67" class="e">~/departure-demo</text><text x="30.06" y="1.67" class="d">$</text><text x="32.064" y="1.67" class="d">departure</text><text x="42.084" y="1.67" class="d">sncf</text><text x="47.094" y="1.67" class="d">search</text><text x="54.108" y="1.67" class="d">p</text></svg><svg x="2250"><use xlink:href="#a"/><use xlink:href="#b" x="55.996"/><text y="1.67" class="c">seb@departure</text><text x="13.026" y="1.67" class="d">:</text><text x="14.028" y="1.67" class="e">~/departure-demo</text><text x="30.06" y="1.67" class="d">$</text><text x="32.064" y="1.67" class="d">departure</text><text x="42.084" y="1.67" class="d">sncf</text><text x="47.094" y="1.67" class="d">search</text><text x="54.108" y="1.67" class="d">pa</text></svg><svg x="2340"><use xlink:href="#a"/><use xlink:href="#b" x="56.996"/><text y="1.67" class="c">seb@departure</text><text x="13.026" y="1.67" class="d">:</text><text x="14.028" y="1.67" class="e">~/departure-demo</text><text x="30.06" y="1.67" class="d">$</text><text x="32.064" y="1.67" class="d">departure</text><text x="42.084" y="1.67" class="d">sncf</text><text x="47.094" y="1.67" class="d">search</text><text x="54.108" y="1.67" class="d">par</text></svg><svg x="2430"><use xlink:href="#a"/><use xlink:href="#b" x="57.996"/><text y="1.67" class="c">seb@departure</text><text x="13.026" y="1.67" class="d">:</text><text x="14.028" y="1.67" class="e">~/departure-demo</text><text x="30.06" y="1.67" class="d">$</text><text x="32.064" y="1.67" class="d">departure</text><text x="42.084" y="1.67" class="d">sncf</text><text x="47.094" y="1.67" class="d">search</text><text x="54.108" y="1.67" class="d">pari</text></svg><svg x="2520"><use xlink:href="#a"/><use xlink:href="#b" x="58.996"/><use xlink:href="#5"/></svg><svg x="2610"><use xlink:href="#a"/><use xlink:href="#b" x="-.004" y="2.146"/><use xlink:href="#5"/></svg><svg x="2700"><use xlink:href="#a"/><use xlink:href="#b" x="-.004" y="39.053"/><use xlink:href="#5"/><use xlink:href="#6" y="2.171"/><use xlink:href="#7" y="4.342"/><use xlink:href="#8" y="6.513"/><use xlink:href="#9" y="8.684"/><use xlink:href="#10" y="10.855"/><use xlink:href="#11" y="13.026"/><use xlink:href="#12" y="15.197"/><use xlink:href="#13" y="17.368"/><use xlink:href="#14" y="19.539"/><use xlink:href="#15" y="21.71"/><use xlink:href="#16" y="23.881"/><use xlink:href="#17" y="26.052"/><use xlink:href="#18" y="28.223"/><use xlink:href="#19" y="30.394"/><use xlink:href="#20" y="32.565"/><use xlink:href="#21" y="34.736"/><use xlink:href="#22" y="36.907"/></svg><svg x="2790"><use xlink:href="#a"/><use xlink:href="#b" x="31.996" y="39.053"/><use xlink:href="#5"/><use xlink:href="#6" y="2.171"/><use xlink:href="#7" y="4.342"/><use xlink:href="#8" y="6.513"/><use xlink:href="#9" y="8.684"/><use xlink:href="#10" y="10.855"/><use xlink:href="#11" y="13.026"/><use xlink:href="#12" y="15.197"/><use xlink:href="#13" y="17.368"/><use xlink:href="#14" y="19.539"/><use xlink:href="#15" y="21.71"/><use xlink:href="#16" y="23.881"/><use xlink:href="#17" y="26.052"/><use xlink:href="#18" y="28.223"/><use xlink:href="#19" y="30.394"/><use xlink:href="#20" y="32.565"/><use xlink:href="#21" y="34.736"/><use xlink:href="#22" y="36.907"/><use xlink:href="#1" y="39.078"/></svg><svg x="2880"><use xlink:href="#a"/><use xlink:href="#b" x="-.004" y="41.224"/><use xlink:href="#5"/><use xlink:href="#6" y="2.171"/><use xlink:href="#7" y="4.342"/><use xlink:href="#8" y="6.513"/><use xlink:href="#9" y="8.684"/><use xlink:href="#10" y="10.855"/><use xlink:href="#11" y="13.026"/><use xlink:href="#12" y="15.197"/><use xlink:href="#13" y="17.368"/><use xlink:href="#14" y="19.539"/><use xlink:href="#15" y="21.71"/><use xlink:href="#16" y="23.881"/><use xlink:href="#17" y="26.052"/><use xlink:href="#18" y="28.223"/><use xlink:href="#19" y="30.394"/><use xlink:href="#20" y="32.565"/><use xlink:href="#21" y="34.736"/><use xlink:href="#22" y="36.907"/><text y="40.748" class="c">seb@departure</text><text x="13.026" y="40.748" class="d">:</text><text x="14.028" y="40.748" class="e">~/departure-demo</text><text x="30.06" y="40.748" class="d">$</text><text x="32.064" y="40.748" class="d">exit</text></svg></svg></g></g></svg></svg>