<svg xmlns="http://www.w3.org/2000/svg" xmlns:xlink="http://www.w3.org/1999/xlink" width="900" height="347.36"><rect width="900" height="347.36" rx="0" ry="0" class="a"/><svg height="347.36" viewBox="0 0 90 34.736" width="900" xmlns="http://www.w3.org/2000/svg" xmlns:xlink="http://www.w3.org/1999/xlink"><style>@keyframes h{0%{transform:translateX(0)}.2%{transform:translateX(-90px)}8.5%{transform:translateX(-180px)}9.7%{transform:translateX(-270px)}10.8%{transform:translateX(-360px)}11.5%{transform:translateX(-450px)}12.1%{transform:translateX(-540px)}13.4%{transform:translateX(-630px)}14.9%{transform:translateX(-720px)}16.4%{transform:translateX(-810px)}19.3%{transform:translateX(-900px)}22.7%{transform:translateX(-990px)}26.4%{transform:translateX(-1080px)}27.4%{transform:translateX(-1170px)}28.7%{transform:translateX(-1260px)}29.7%{transform:translateX(-1350px)}30.8%{transform:translateX(-1440px)}31.7%{transform:translateX(-1530px)}34.8%{transform:translateX(-1620px)}44.5%{transform:translateX(-1710px)}44.8%{transform:translateX(-1800px)}to{transform:translateX(-1890px)}}.a{fill:#282d35}.c,.d,.e{white-space:pre}.c{fill:#a8cc8c;font-weight:700}.d,.e{fill:#b9c0cb}.e{fill:#71bef2;font-weight:700}</style><g font-family="Monaco,Consolas,Menlo,'Bitstream Vera Sans Mono','Powerline Symbols',monospace" font-size="1.67"><defs><symbol id="1"><text y="1.67" class="c">seb@departure</text><text x="13.026" y="1.67" class="d">:</text><text x="14.028" y="1.67" class="e">~/departure-demo</text><text x="30.06" y="1.67" class="d">$</text></symbol><symbol id="2"><text y="1.67" class="c">seb@departure</text><text x="13.026" y="1.67" class="d">:</text><text x="14.028" y="1.67" class="e">~/departure-demo</text><text x="30.06" y="1.67" class="d">$</text><text x="32.064" y="1.67" class="d">departure-server</text></symbol><symbol id="3"><text y="1.67" class="d">Usage:</text><text x="7.014" y="1.67" class="d">departure-server</text><text x="24.048" y="1.67" class="d">[OPTIONS]</text><text x="34.068" y="1.67" class="d">COMMAND</text><text x="42.084" y="1.67" class="d">[ARGS]...</text></symbol><symbol id="4"><text x="2.004" y="1.67" class="d">Starts</text><text x="9.018" y="1.67" class="d">a</text><text x="11.022" y="1.67" class="d">departure</text><text x="21.042" y="1.67" class="d">board</text><text x="27.054" y="1.67" class="d">display</text><text x="35.07" y="1.67" class="d">server</text><text x="42.084" y="1.67" class="d">using</text><text x="48.096" y="1.67" class="d">the</text><text x="52.104" y="1.67" class="d">back</text><text x="57.114" y="1.67" class="d">end</text><text x="61.122" y="1.67" class="d">specified</text><text x="71.142" y="1.67" class="d">by</text></symbol><symbol id="5"><text x="2.004" y="1.67" class="d">COMMAND.</text><text x="11.022" y="1.67" class="d">Back</text><text x="16.032" y="1.67" class="d">ends</text><text x="21.042" y="1.67" class="d">are</text><text x="25.05" y="1.67" class="d">available</text><text x="35.07" y="1.67" class="d">as</text><text x="38.076" y="1.67" class="d">additional</text><text x="49.098" y="1.67" class="d">packages,</text><text x="59.118" y="1.67" class="d">see</text><text x="63.126" y="1.67" class="d">online</text></symbol><symbol id="6"><text x="2.004" y="1.67" class="d">documentation</text><text x="16.032" y="1.67" class="d">for</text><text x="20.04" y="1.67" class="d">full</text><text x="25.05" y="1.67" class="d">list.</text></symbol><symbol id="7"><text y="1.67" class="d">Options:</text></symbol><symbol id="8"><text x="2.004" y="1.67" class="d">--help</text><text x="10.02" y="1.67" class="d">Show</text><text x="15.03" y="1.67" class="d">this</text><text x="20.04" y="1.67" class="d">message</text><text x="28.056" y="1.67" class="d">and</text><text x="32.064" y="1.67" class="d">exit.</text></symbol><symbol id="9"><text y="1.67" class="d">Commands:</text></symbol><symbol id="10"><text x="2.004" y="1.67" class="d">pygame</text><text x="11.022" y="1.67" class="d">Pygame</text><text x="18.036" y="1.67" class="d">back</text><text x="23.046" y="1.67" class="d">end.</text></symbol><symbol id="11"><text x="2.004" y="1.67" class="d">sdl</text><text x="11.022" y="1.67" class="d">SDL2</text><text x="16.032" y="1.67" class="d">back</text><text x="21.042" y="1.67" class="d">end.</text></symbol><symbol id="12"><text x="2.004" y="1.67" class="d">sdl-ext</text><text x="11.022" y="1.67" class="d">SDL2</text><text x="16.032" y="1.67" class="d">with</text><text x="21.042" y="1.67" class="d">Python</text><text x="28.056" y="1.67" class="d">extensions</text><text x="39.078" y="1.67" class="d">back</text><text x="44.088" y="1.67" class="d">end.</text></symbol><symbol id="a"><path fill="transparent" d="M0 0h90v16H0z"/></symbol><symbol id="b"><path fill="#6f7683" d="M0 0h1.102v2.171H0z"/></symbol></defs><path class="a" d="M0 0h90v34.736H0z"/><g style="animation-duration:8.392503s;animation-iteration-count:infinite;animation-name:h;animation-timing-function:steps(1,end)"><svg width="1980"><svg><use xlink:href="#a"/><use xlink:href="#b" x="-.004"/></svg><svg x="90"><use xlink:href="#a"/><use xlink:href="#b" x="31.996"/><use xlink:href="#1"/></svg><svg x="180"><use xlink:href="#a"/><use xlink:href="#b" x="32.996"/><text y="1.67" class="c">seb@departure</text><text x="13.026" y="1.67" class="d">:</text><text x="14.028" y="1.67" class="e">~/departure-demo</text><text x="30.06" y="1.67" class="d">$</text><text x="32.064" y="1.67" class="d">d</text></svg><svg x="270"><use xlink:href="#a"/><use xlink:href="#b" x="33.996"/><text y="1.67" class="c">seb@departure</text><text x="13.026" y="1.67" class="d">:</text><text x="14.028" y="1.67" class="e">~/departure-demo</text><text x="30.06" y="1.67" class="d">$</text><text x="32.064" y="1.67" class="d">de</text></svg><svg x="360"><use xlink:href="#a"/><use xlink:href="#b" x="34.996"/><text y="1.67" class="c">seb@departure</text><text x="13.026" y="1.67" class="d">:</text><text x="14.028" y="1.67" class="e">~/departure-demo</text><text x="30.06" y="1.67" class="d">$</text><text x="32.064" y="1.67" class="d">dep</text></svg><svg x="450"><use xlink:href="#a"/><use xlink:href="#b" x="35.996"/><text y="1.67" class="c">seb@departure</text><text x="13.026" y="1.67" class="d">:</text><text x="14.028" y="1.67" class="e">~/departure-demo</text><text x="30.06" y="1.67" class="d">$</text><text x="32.064" y="1.67" class="d">depa</text></svg><svg x="540"><use xlink:href="#a"/><use xlink:href="#b" x="36.996"/><text y="1.67" class="c">seb@departure</text><text x="13.026" y="1.67" class="d">:</text><text x="14.028" y="1.67" class="e">~/departure-demo</text><text x="30.06" y="1.67" class="d">$</text><text x="32.064" y="1.67" class="d">depar</text></svg><svg x="630"><use xlink:href="#a"/><use xlink:href="#b" x="37.996"/><text y="1.67" class="c">seb@departure</text><text x="13.026" y="1.67" class="d">:</text><text x="14.028" y="1.67" class="e">~/departure-demo</text><text x="30.06" y="1.67" class="d">$</text><text x="32.064" y="1.67" class="d">depart</text></svg><svg x="720"><use xlink:href="#a"/><use xlink:href="#b" x="38.996"/><text y="1.67" class="c">seb@departure</text><text x="13.026" y="1.67" class="d">:</text><text x="14.028" y="1.67" class="e">~/departure-demo</text><text x="30.06" y="1.67" class="d">$</text><text x="32.064" y="1.67" class="d">departu</text></svg><svg x="810"><use xlink:href="#a"/><use xlink:href="#b" x="39.996"/><text y="1.67" class="c">seb@departure</text><text x="13.026" y="1.67" class="d">:</text><text x="14.028" y="1.67" class="e">~/departure-demo</text><text x="30.06" y="1.67" class="d">$</text><text x="32.064" y="1.67" class="d">departur</text></svg><svg x="900"><use xlink:href="#a"/><use xlink:href="#b" x="40.996"/><text y="1.67" class="c">seb@departure</text><text x="13.026" y="1.67" class="d">:</text><text x="14.028" y="1.67" class="e">~/departure-demo</text><text x="30.06" y="1.67" class="d">$</text><text x="32.064" y="1.67" class="d">departure</text></svg><svg x="990"><use xlink:href="#a"/><use xlink:href="#b" x="41.996"/><text y="1.67" class="c">seb@departure</text><text x="13.026" y="1.67" class="d">:</text><text x="14.028" y="1.67" class="e">~/departure-demo</text><text x="30.06" y="1.67" class="d">$</text><text x="32.064" y="1.67" class="d">departure-</text></svg><svg x="1080"><use xlink:href="#a"/><use xlink:href="#b" x="42.996"/><text y="1.67" class="c">seb@departure</text><text x="13.026" y="1.67" class="d">:</text><text x="14.028" y="1.67" class="e">~/departure-demo</text><text x="30.06" y="1.67" class="d">$</text><text x="32.064" y="1.67" class="d">departure-s</text></svg><svg x="1170"><use xlink:href="#a"/><use xlink:href="#b" x="43.996"/><text y="1.67" class="c">seb@departure</text><text x="13.026" y="1.67" class="d">:</text><text x="14.028" y="1.67" class="e">~/departure-demo</text><text x="30.06" y="1.67" class="d">$</text><text x="32.064" y="1.67" class="d">departure-se</text></svg><svg x="1260"><use xlink:href="#a"/><use xlink:href="#b" x="44.996"/><text y="1.67" class="c">seb@departure</text><text x="13.026" y="1.67" class="d">:</text><text x="14.028" y="1.67" class="e">~/departure-demo</text><text x="30.06" y="1.67" class="d">$</text><text x="32.064" y="1.67" class="d">departure-ser</text></svg><svg x="1350"><use xlink:href="#a"/><use xlink:href="#b" x="45.996"/><text y="1.67" class="c">seb@departure</text><text x="13.026" y="1.67" class="d">:</text><text x="14.028" y="1.67" class="e">~/departure-demo</text><text x="30.06" y="1.67" class="d">$</text><text x="32.064" y="1.67" class="d">departure-serv</text></svg><svg x="1440"><use xlink:href="#a"/><use xlink:href="#b" x="46.996"/><text y="1.67" class="c">seb@departure</text><text x="13.026" y="1.67" class="d">:</text><text x="14.028" y="1.67" class="e">~/departure-demo</text><text x="30.06" y="1.67" class="d">$</text><text x="32.064" y="1.67" class="d">departure-serve</text></svg><svg x="1530"><use xlink:href="#a"/><use xlink:href="#b" x="47.996"/><use xlink:href="#2"/></svg><svg x="1620"><use xlink:href="#a"/><use xlink:href="#b" x="-.004" y="2.146"/><use xlink:href="#2"/></svg><svg x="1710"><use xlink:href="#a"/><use xlink:href="#b" x="-.004" y="30.369"/><use xlink:href="#2"/><use xlink:href="#3" y="2.171"/><use xlink:href="#4" y="6.513"/><use xlink:href="#5" y="8.684"/><use xlink:href="#6" y="10.855"/><use xlink:href="#7" y="15.197"/><use xlink:href="#8" y="17.368"/><use xlink:href="#9" y="21.71"/><use xlink:href="#10" y="23.881"/><use xlink:href="#11" y="26.052"/><use xlink:href="#12" y="28.223"/></svg><svg x="1800"><use xlink:href="#a"/><use xlink:href="#b" x="31.996" y="30.369"/><use xlink:href="#2"/><use xlink:href="#3" y="2.171"/><use xlink:href="#4" y="6.513"/><use xlink:href="#5" y="8.684"/><use xlink:href="#6" y="10.855"/><use xlink:href="#7" y="15.197"/><use xlink:href="#8" y="17.368"/><use xlink:href="#9" y="21.71"/><use xlink:href="#10" y="23.881"/><use xlink:href="#11" y="26.052"/><use xlink:href="#12" y="28.223"/><use xlink:href="#1" y="30.394"/></svg><svg x="1890"><use xlink:href="#a"/><use xlink:href="#b" x="-.004" y="32.54"/><use xlink:href="#2"/><use xlink:href="#3" y="2.171"/><use xlink:href="#4" y="6.513"/><use xlink:href="#5" y="8.684"/><use xlink:href="#6" y="10.855"/><use xlink:href="#7" y="15.197"/><use xlink:href="#8" y="17.368"/><use xlink:href="#9" y="21.71"/><use xlink:href="#10" y="23.881"/><use xlink:href="#11" y="26.052"/><use xlink:href="#12" y="28.223"/><text y="32.064" class="c">seb@departure</text><text x="13.026" y="32.064" class="d">:</text><text x="14.028" y="32.064" class="e">~/departure-demo</text><text x="30.06" y="32.064" class="d">$</text><text x="32.064" y="32.064" class="d">exit</text></svg></svg></g></g></svg></svg>