<svg xmlns="http://www.w3.org/2000/svg" xmlns:xlink="http://www.w3.org/1999/xlink" width="900" height="347.36"><rect width="900" height="347.36" rx="0" ry="0" class="a"/><svg height="347.36" viewBox="0 0 90 34.736" width="900" xmlns="http://www.w3.org/2000/svg" xmlns:xlink="http://www.w3.org/1999/xlink"><style>@keyframes h{0%{transform:translateX(0)}.2%{transform:translateX(-90px)}7.1%{transform:translateX(-180px)}8%{transform:translateX(-270px)}8.7%{transform:translateX(-360px)}9.2%{transform:translateX(-450px)}9.9%{transform:translateX(-540px)}10.8%{transform:translateX(-630px)}11.6%{transform:translateX(-720px)}12.3%{transform:translateX(-810px)}13%{transform:translateX(-900px)}14.3%{transform:translateX(-990px)}17.5%{transform:translateX(-1080px)}18.6%{transform:translateX(-1170px)}19.8%{transform:translateX(-1260px)}20.9%{transform:translateX(-1350px)}21.9%{transform:translateX(-1440px)}23.4%{transform:translateX(-1530px)}24.3%{transform:translateX(-1620px)}25.8%{transform:translateX(-1710px)}28.9%{transform:translateX(-1800px)}30%{transform:translateX(-1890px)}31.1%{transform:translateX(-1980px)}35%{transform:translateX(-2070px)}37.7%{transform:translateX(-2160px)}44%{transform:translateX(-2250px)}45.3%{transform:translateX(-2340px)}48.3%{transform:translateX(-2430px)}53.8%{transform:translateX(-2520px)}69.9%{transform:translateX(-2610px)}70.2%{transform:translateX(-2700px)}to{transform:translateX(-2790px)}}.a{fill:#282d35}.c,.d,.e{white-space:pre}.c{fill:#a8cc8c;font-weight:700}.d,.e{fill:#b9c0cb}.e{fill:#71bef2;font-weight:700}</style><g font-family="Monaco,Consolas,Menlo,'Bitstream Vera Sans Mono','Powerline Symbols',monospace" font-size="1.67"><defs><symbol id="1"><text y="1.67" class="c">seb@departure</text><text x="13.026" y="1.67" class="d">:</text><text x="14.028" y="1.67" class="e">~/departure-demo</text><text x="30.06" y="1.67" class="d">$</text></symbol><symbol id="2"><text y="1.67" class="c">seb@departure</text><text x="13.026" y="1.67" class="d">:</text><text x="14.028" y="1.67" class="e">~/departure-demo</text><text x="30.06" y="1.67" class="d">$</text><text x="32.064" y="1.67" class="d">departure</text></symbol><symbol id="3"><text y="1.67" class="c">seb@departure</text><text x="13.026" y="1.67" class="d">:</text><text x="14.028" y="1.67" class="e">~/departure-demo</text><text x="30.06" y="1.67" class="d">$</text><text x="32.064" y="1.67" class="d">departure</text><text x="42.084" y="1.67" class="d">lu</text></symbol><symbol id="4"><text y="1.67" class="c">seb@departure</text><text x="13.026" y="1.67" class="d">:</text><text x="14.028" y="1.67" class="e">~/departure-demo</text><text x="30.06" y="1.67" class="d">$</text><text x="32.064" y="1.67" class="d">departure</text><text x="42.084" y="1.67" class="d">lu</text><text x="45.09" y="1.67" class="d">next</text></symbol><symbol id="5"><text y="1.67" class="c">seb@departure</text><text x="13.026" y="1.67" class="d">:</text><text x="14.028" y="1.67" class="e">~/departure-demo</text><text x="30.06" y="1.67" class="d">$</text><text x="32.064" y="1.67" class="d">departure</text><text x="42.084" y="1.67" class="d">lu</text><text x="45.09" y="1.67" class="d">next</text><text x="50.1" y="1.67" class="d">ce</text></symbol><symbol id="6"><text y="1.67" class="c">seb@departure</text><text x="13.026" y="1.67" class="d">:</text><text x="14.028" y="1.67" class="e">~/departure-demo</text><text x="30.06" y="1.67" class="d">$</text><text x="32.064" y="1.67" class="d">departure</text><text x="42.084" y="1.67" class="d">lu</text><text x="45.09" y="1.67" class="d">next</text><text x="50.1" y="1.67" class="d">ce</text><text x="53.106" y="1.67" class="d">oxc</text></symbol><symbol id="7"><text y="1.67" class="c">seb@departure</text><text x="13.026" y="1.67" class="d">:</text><text x="14.028" y="1.67" class="e">~/departure-demo</text><text x="30.06" y="1.67" class="d">$</text><text x="32.064" y="1.67" class="d">departure</text><text x="42.084" y="1.67" class="d">lu</text><text x="45.09" y="1.67" class="d">next</text><text x="50.1" y="1.67" class="d">ce</text><text x="53.106" y="1.67" class="d">oxc</text><text x="57.114" y="1.67" class="d">w</text></symbol><symbol id="8"><text y="1.67" class="d">1st</text><text x="6.012" y="1.67" class="d">West</text><text x="11.022" y="1.67" class="d">Ruislip</text><text x="23.046" y="1.67" class="d">2</text><text x="25.05" y="1.67" class="d">mins</text></symbol><symbol id="9"><text y="1.67" class="d">2nd</text><text x="6.012" y="1.67" class="d">Ealing</text><text x="13.026" y="1.67" class="d">Broadway</text><text x="23.046" y="1.67" class="d">4</text><text x="25.05" y="1.67" class="d">mins</text></symbol><symbol id="10"><text y="1.67" class="d">3rd</text><text x="6.012" y="1.67" class="d">West</text><text x="11.022" y="1.67" class="d">Ruislip</text><text x="23.046" y="1.67" class="d">5</text><text x="25.05" y="1.67" class="d">mins</text></symbol><symbol id="11"><text y="1.67" class="d">4th</text><text x="6.012" y="1.67" class="d">Ealing</text><text x="13.026" y="1.67" class="d">Broadway</text><text x="23.046" y="1.67" class="d">6</text><text x="25.05" y="1.67" class="d">mins</text></symbol><symbol id="12"><text y="1.67" class="d">5th</text><text x="6.012" y="1.67" class="d">West</text><text x="11.022" y="1.67" class="d">Ruislip</text><text x="23.046" y="1.67" class="d">7</text><text x="25.05" y="1.67" class="d">mins</text></symbol><symbol id="13"><text y="1.67" class="d">6th</text><text x="6.012" y="1.67" class="d">White</text><text x="12.024" y="1.67" class="d">City</text><text x="23.046" y="1.67" class="d">12</text><text x="26.052" y="1.67" class="d">mins</text></symbol><symbol id="14"><text y="1.67" class="d">7th</text><text x="6.012" y="1.67" class="d">North</text><text x="12.024" y="1.67" class="d">Acton</text><text x="23.046" y="1.67" class="d">14</text><text x="26.052" y="1.67" class="d">mins</text></symbol><symbol id="15"><text y="1.67" class="d">8th</text><text x="6.012" y="1.67" class="d">Ealing</text><text x="13.026" y="1.67" class="d">Broadway</text><text x="23.046" y="1.67" class="d">15</text><text x="26.052" y="1.67" class="d">mins</text></symbol><symbol id="16"><text y="1.67" class="d">9th</text><text x="6.012" y="1.67" class="d">West</text><text x="11.022" y="1.67" class="d">Ruislip</text><text x="23.046" y="1.67" class="d">19</text><text x="26.052" y="1.67" class="d">mins</text></symbol><symbol id="17"><text y="1.67" class="d">10th</text><text x="6.012" y="1.67" class="d">Ealing</text><text x="13.026" y="1.67" class="d">Broadway</text><text x="23.046" y="1.67" class="d">20</text><text x="26.052" y="1.67" class="d">mins</text></symbol><symbol id="18"><text y="1.67" class="d">11th</text><text x="6.012" y="1.67" class="d">West</text><text x="11.022" y="1.67" class="d">Ruislip</text><text x="23.046" y="1.67" class="d">22</text><text x="26.052" y="1.67" class="d">mins</text></symbol><symbol id="19"><text y="1.67" class="d">12th</text><text x="6.012" y="1.67" class="d">Ealing</text><text x="13.026" y="1.67" class="d">Broadway</text><text x="23.046" y="1.67" class="d">26</text><text x="26.052" y="1.67" class="d">mins</text></symbol><symbol id="20"><text y="1.67" class="d">13th</text><text x="6.012" y="1.67" class="d">West</text><text x="11.022" y="1.67" class="d">Ruislip</text><text x="23.046" y="1.67" class="d">29</text><text x="26.052" y="1.67" class="d">mins</text></symbol><symbol id="a"><path fill="transparent" d="M0 0h90v16H0z"/></symbol><symbol id="b"><path fill="#6f7683" d="M0 0h1.102v2.171H0z"/></symbol></defs><path class="a" d="M0 0h90v34.736H0z"/><g style="animation-duration:12.392503s;animation-iteration-count:infinite;animation-name:h;animation-timing-function:steps(1,end)"><svg width="2880"><svg><use xlink:href="#a"/><use xlink:href="#b" x="-.004"/></svg><svg x="90"><use xlink:href="#a"/><use xlink:href="#b" x="31.996"/><use xlink:href="#1"/></svg><svg x="180"><use xlink:href="#a"/><use xlink:href="#b" x="32.996"/><text y="1.67" class="c">seb@departure</text><text x="13.026" y="1.67" class="d">:</text><text x="14.028" y="1.67" class="e">~/departure-demo</text><text x="30.06" y="1.67" class="d">$</text><text x="32.064" y="1.67" class="d">d</text></svg><svg x="270"><use xlink:href="#a"/><use xlink:href="#b" x="33.996"/><text y="1.67" class="c">seb@departure</text><text x="13.026" y="1.67" class="d">:</text><text x="14.028" y="1.67" class="e">~/departure-demo</text><text x="30.06" y="1.67" class="d">$</text><text x="32.064" y="1.67" class="d">de</text></svg><svg x="360"><use xlink:href="#a"/><use xlink:href="#b" x="34.996"/><text y="1.67" class="c">seb@departure</text><text x="13.026" y="1.67" class="d">:</text><text x="14.028" y="1.67" class="e">~/departure-demo</text><text x="30.06" y="1.67" class="d">$</text><text x="32.064" y="1.67" class="d">dep</text></svg><svg x="450"><use xlink:href="#a"/><use xlink:href="#b" x="35.996"/><text y="1.67" class="c">seb@departure</text><text x="13.026" y="1.67" class="d">:</text><text x="14.028" y="1.67" class="e">~/departure-demo</text><text x="30.06" y="1.67" class="d">$</text><text x="32.064" y="1.67" class="d">depa</text></svg><svg x="540"><use xlink:href="#a"/><use xlink:href="#b" x="36.996"/><text y="1.67" class="c">seb@departure</text><text x="13.026" y="1.67" class="d">:</text><text x="14.028" y="1.67" class="e">~/departure-demo</text><text x="30.06" y="1.67" class="d">$</text><text x="32.064" y="1.67" class="d">depar</text></svg><svg x="630"><use xlink:href="#a"/><use xlink:href="#b" x="37.996"/><text y="1.67" class="c">seb@departure</text><text x="13.026" y="1.67" class="d">:</text><text x="14.028" y="1.67" class="e">~/departure-demo</text><text x="30.06" y="1.67" class="d">$</text><text x="32.064" y="1.67" class="d">depart</text></svg><svg x="720"><use xlink:href="#a"/><use xlink:href="#b" x="38.996"/><text y="1.67" class="c">seb@departure</text><text x="13.026" y="1.67" class="d">:</text><text x="14.028" y="1.67" class="e">~/departure-demo</text><text x="30.06" y="1.67" class="d">$</text><text x="32.064" y="1.67" class="d">departu</text></svg><svg x="810"><use xlink:href="#a"/><use xlink:href="#b" x="39.996"/><text y="1.67" class="c">seb@departure</text><text x="13.026" y="1.67" class="d">:</text><text x="14.028" y="1.67" class="e">~/departure-demo</text><text x="30.06" y="1.67" class="d">$</text><text x="32.064" y="1.67" class="d">departur</text></svg><svg x="900"><use xlink:href="#a"/><use xlink:href="#b" x="40.996"/><use xlink:href="#2"/></svg><svg x="990"><use xlink:href="#a"/><use xlink:href="#b" x="41.996"/><use xlink:href="#2"/></svg><svg x="1080"><use xlink:href="#a"/><use xlink:href="#b" x="42.996"/><text y="1.67" class="c">seb@departure</text><text x="13.026" y="1.67" class="d">:</text><text x="14.028" y="1.67" class="e">~/departure-demo</text><text x="30.06" y="1.67" class="d">$</text><text x="32.064" y="1.67" class="d">departure</text><text x="42.084" y="1.67" class="d">l</text></svg><svg x="1170"><use xlink:href="#a"/><use xlink:href="#b" x="43.996"/><use xlink:href="#3"/></svg><svg x="1260"><use xlink:href="#a"/><use xlink:href="#b" x="44.996"/><use xlink:href="#3"/></svg><svg x="1350"><use xlink:href="#a"/><use xlink:href="#b" x="45.996"/><text y="1.67" class="c">seb@departure</text><text x="13.026" y="1.67" class="d">:</text><text x="14.028" y="1.67" class="e">~/departure-demo</text><text x="30.06" y="1.67" class="d">$</text><text x="32.064" y="1.67" class="d">departure</text><text x="42.084" y="1.67" class="d">lu</text><text x="45.09" y="1.67" class="d">n</text></svg><svg x="1440"><use xlink:href="#a"/><use xlink:href="#b" x="46.996"/><text y="1.67" class="c">seb@departure</text><text x="13.026" y="1.67" class="d">:</text><text x="14.028" y="1.67" class="e">~/departure-demo</text><text x="30.06" y="1.67" class="d">$</text><text x="32.064" y="1.67" class="d">departure</text><text x="42.084" y="1.67" class="d">lu</text><text x="45.09" y="1.67" class="d">ne</text></svg><svg x="1530"><use xlink:href="#a"/><use xlink:href="#b" x="47.996"/><text y="1.67" class="c">seb@departure</text><text x="13.026" y="1.67" class="d">:</text><text x="14.028" y="1.67" class="e">~/departure-demo</text><text x="30.06" y="1.67" class="d">$</text><text x="32.064" y="1.67" class="d">departure</text><text x="42.084" y="1.67" class="d">lu</text><text x="45.09" y="1.67" class="d">nex</text></svg><svg x="1620"><use xlink:href="#a"/><use xlink:href="#b" x="48.996"/><use xlink:href="#4"/></svg><svg x="1710"><use xlink:href="#a"/><use xlink:href="#b" x="49.996"/><use xlink:href="#4"/></svg><svg x="1800"><use xlink:href="#a"/><use xlink:href="#b" x="50.996"/><text y="1.67" class="c">seb@departure</text><text x="13.026" y="1.67" class="d">:</text><text x="14.028" y="1.67" class="e">~/departure-demo</text><text x="30.06" y="1.67" class="d">$</text><text x="32.064" y="1.67" class="d">departure</text><text x="42.084" y="1.67" class="d">lu</text><text x="45.09" y="1.67" class="d">next</text><text x="50.1" y="1.67" class="d">c</text></svg><svg x="1890"><use xlink:href="#a"/><use xlink:href="#b" x="51.996"/><use xlink:href="#5"/></svg><svg x="1980"><use xlink:href="#a"/><use xlink:href="#b" x="52.996"/><use xlink:href="#5"/></svg><svg x="2070"><use xlink:href="#a"/><use xlink:href="#b" x="53.996"/><text y="1.67" class="c">seb@departure</text><text x="13.026" y="1.67" class="d">:</text><text x="14.028" y="1.67" class="e">~/departure-demo</text><text x="30.06" y="1.67" class="d">$</text><text x="32.064" y="1.67" class="d">departure</text><text x="42.084" y="1.67" class="d">lu</text><text x="45.09" y="1.67" class="d">next</text><text x="50.1" y="1.67" class="d">ce</text><text x="53.106" y="1.67" class="d">o</text></svg><svg x="2160"><use xlink:href="#a"/><use xlink:href="#b" x="54.996"/><text y="1.67" class="c">seb@departure</text><text x="13.026" y="1.67" class="d">:</text><text x="14.028" y="1.67" class="e">~/departure-demo</text><text x="30.06" y="1.67" class="d">$</text><text x="32.064" y="1.67" class="d">departure</text><text x="42.084" y="1.67" class="d">lu</text><text x="45.09" y="1.67" class="d">next</text><text x="50.1" y="1.67" class="d">ce</text><text x="53.106" y="1.67" class="d">ox</text></svg><svg x="2250"><use xlink:href="#a"/><use xlink:href="#b" x="55.996"/><use xlink:href="#6"/></svg><svg x="2340"><use xlink:href="#a"/><use xlink:href="#b" x="56.996"/><use xlink:href="#6"/></svg><svg x="2430"><use xlink:href="#a"/><use xlink:href="#b" x="57.996"/><use xlink:href="#7"/></svg><svg x="2520"><use xlink:href="#a"/><use xlink:href="#b" x="-.004" y="2.146"/><use xlink:href="#7"/></svg><svg x="2610"><use xlink:href="#a"/><use xlink:href="#b" x="-.004" y="30.369"/><use xlink:href="#7"/><use xlink:href="#8" y="2.171"/><use xlink:href="#9" y="4.342"/><use xlink:href="#10" y="6.513"/><use xlink:href="#11" y="8.684"/><use xlink:href="#12" y="10.855"/><use xlink:href="#13" y="13.026"/><use xlink:href="#14" y="15.197"/><use xlink:href="#15" y="17.368"/><use xlink:href="#16" y="19.539"/><use xlink:href="#17" y="21.71"/><use xlink:href="#18" y="23.881"/><use xlink:href="#19" y="26.052"/><use xlink:href="#20" y="28.223"/></svg><svg x="2700"><use xlink:href="#a"/><use xlink:href="#b" x="31.996" y="30.369"/><use xlink:href="#7"/><use xlink:href="#8" y="2.171"/><use xlink:href="#9" y="4.342"/><use xlink:href="#10" y="6.513"/><use xlink:href="#11" y="8.684"/><use xlink:href="#12" y="10.855"/><use xlink:href="#13" y="13.026"/><use xlink:href="#14" y="15.197"/><use xlink:href="#15" y="17.368"/><use xlink:href="#16" y="19.539"/><use xlink:href="#17" y="21.71"/><use xlink:href="#18" y="23.881"/><use xlink:href="#19" y="26.052"/><use xlink:href="#20" y="28.223"/><use xlink:href="#1" y="30.394"/></svg><svg x="2790"><use xlink:href="#a"/><use xlink:href="#b" x="-.004" y="32.54"/><use xlink:href="#7"/><use xlink:href="#8" y="2.171"/><use xlink:href="#9" y="4.342"/><use xlink:href="#10" y="6.513"/><use xlink:href="#11" y="8.684"/><use xlink:href="#12" y="10.855"/><use xlink:href="#13" y="13.026"/><use xlink:href="#14" y="15.197"/><use xlink:href="#15" y="17.368"/><use xlink:href="#16" y="19.539"/><use xlink:href="#17" y="21.71"/><use xlink:href="#18" y="23.881"/><use xlink:href="#19" y="26.052"/><use xlink:href="#20" y="28.223"/><text y="32.064" class="c">seb@departure</text><text x="13.026" y="32.064" class="d">:</text><text x="14.028" y="32.064" class="e">~/departure-demo</text><text x="30.06" y="32.064" class="d">$</text><text x="32.064" y="32.064" class="d">exit</text></svg></svg></g></g></svg></svg>