<svg xmlns="http://www.w3.org/2000/svg" xmlns:xlink="http://www.w3.org/1999/xlink" width="900" height="390.78"><rect width="900" height="390.78" rx="0" ry="0" class="a"/><svg height="390.78" viewBox="0 0 90 39.078" width="900" xmlns="http://www.w3.org/2000/svg" xmlns:xlink="http://www.w3.org/1999/xlink"><style>@keyframes h{0%{transform:translateX(0)}.3%{transform:translateX(-90px)}11.1%{transform:translateX(-180px)}12.6%{transform:translateX(-270px)}14.1%{transform:translateX(-360px)}14.9%{transform:translateX(-450px)}16%{transform:translateX(-540px)}17.2%{transform:translateX(-630px)}18.7%{transform:translateX(-720px)}20.1%{transform:translateX(-810px)}21.3%{transform:translateX(-900px)}23.8%{transform:translateX(-990px)}27.6%{transform:translateX(-1080px)}28.1%{transform:translateX(-1170px)}to{transform:translateX(-1260px)}}.a{fill:#282d35}.c,.d,.e{white-space:pre}.c{fill:#a8cc8c;font-weight:700}.d,.e{fill:#b9c0cb}.e{fill:#71bef2;font-weight:700}</style><g font-family="Monaco,Consolas,Menlo,'Bitstream Vera Sans Mono','Powerline Symbols',monospace" font-size="1.67"><defs><symbol id="1"><text y="1.67" class="c">seb@departure</text><text x="13.026" y="1.67" class="d">:</text><text x="14.028" y="1.67" class="e">~/departure-demo</text><text x="30.06" y="1.67" class="d">$</text></symbol><symbol id="2"><text y="1.67" class="c">seb@departure</text><text x="13.026" y="1.67" class="d">:</text><text x="14.028" y="1.67" class="e">~/departure-demo</text><text x="30.06" y="1.67" class="d">$</text><text x="32.064" y="1.67" class="d">departure</text></symbol><symbol id="3"><text y="1.67" class="d">Usage:</text><text x="7.014" y="1.67" class="d">departure</text><text x="17.034" y="1.67" class="d">[OPTIONS]</text><text x="27.054" y="1.67" class="d">COMMAND</text><text x="35.07" y="1.67" class="d">[ARGS]...</text></symbol><symbol id="4"><text x="2.004" y="1.67" class="d">Get</text><text x="6.012" y="1.67" class="d">station</text><text x="14.028" y="1.67" class="d">information</text><text x="26.052" y="1.67" class="d">and</text><text x="30.06" y="1.67" class="d">departures</text><text x="41.082" y="1.67" class="d">from</text><text x="46.092" y="1.67" class="d">transport</text><text x="56.112" y="1.67" class="d">operators,</text><text x="67.134" y="1.67" class="d">and</text></symbol><symbol id="5"><text x="2.004" y="1.67" class="d">update</text><text x="9.018" y="1.67" class="d">a</text><text x="11.022" y="1.67" class="d">departure</text><text x="21.042" y="1.67" class="d">board</text><text x="27.054" y="1.67" class="d">with</text><text x="32.064" y="1.67" class="d">departure</text><text x="42.084" y="1.67" class="d">information</text><text x="54.108" y="1.67" class="d">for</text><text x="58.116" y="1.67" class="d">a</text><text x="60.12" y="1.67" class="d">station.</text></symbol><symbol id="6"><text y="1.67" class="d">Options:</text></symbol><symbol id="7"><text x="2.004" y="1.67" class="d">--help</text><text x="10.02" y="1.67" class="d">Show</text><text x="15.03" y="1.67" class="d">this</text><text x="20.04" y="1.67" class="d">message</text><text x="28.056" y="1.67" class="d">and</text><text x="32.064" y="1.67" class="d">exit.</text></symbol><symbol id="8"><text y="1.67" class="d">Commands:</text></symbol><symbol id="9"><text x="2.004" y="1.67" class="d">lu</text><text x="17.034" y="1.67" class="d">Information</text><text x="29.058" y="1.67" class="d">and</text><text x="33.066" y="1.67" class="d">departures</text><text x="44.088" y="1.67" class="d">for</text><text x="48.096" y="1.67" class="d">London</text><text x="55.11" y="1.67" class="d">Underground</text><text x="67.134" y="1.67" class="d">(UK).</text></symbol><symbol id="10"><text x="2.004" y="1.67" class="d">national-rail</text><text x="17.034" y="1.67" class="d">Information</text><text x="29.058" y="1.67" class="d">and</text><text x="33.066" y="1.67" class="d">departures</text><text x="44.088" y="1.67" class="d">for</text><text x="48.096" y="1.67" class="d">National</text><text x="57.114" y="1.67" class="d">Rail</text><text x="62.124" y="1.67" class="d">(UK).</text></symbol><symbol id="11"><text x="2.004" y="1.67" class="d">ns</text><text x="17.034" y="1.67" class="d">Information</text><text x="29.058" y="1.67" class="d">and</text><text x="33.066" y="1.67" class="d">departures</text><text x="44.088" y="1.67" class="d">for</text><text x="48.096" y="1.67" class="d">Nederlandse</text><text x="60.12" y="1.67" class="d">Spoorwegen</text><text x="71.142" y="1.67" class="d">(NL).</text></symbol><symbol id="12"><text x="2.004" y="1.67" class="d">ratp</text><text x="17.034" y="1.67" class="d">Information</text><text x="29.058" y="1.67" class="d">and</text><text x="33.066" y="1.67" class="d">departures</text><text x="44.088" y="1.67" class="d">for</text><text x="48.096" y="1.67" class="d">RATP</text><text x="53.106" y="1.67" class="d">(FR).</text></symbol><symbol id="13"><text x="2.004" y="1.67" class="d">sncf</text><text x="17.034" y="1.67" class="d">Information</text><text x="29.058" y="1.67" class="d">and</text><text x="33.066" y="1.67" class="d">departures</text><text x="44.088" y="1.67" class="d">for</text><text x="48.096" y="1.67" class="d">SNCF</text><text x="53.106" y="1.67" class="d">(FR).</text></symbol><symbol id="14"><text x="2.004" y="1.67" class="d">transilien</text><text x="17.034" y="1.67" class="d">Information</text><text x="29.058" y="1.67" class="d">and</text><text x="33.066" y="1.67" class="d">departures</text><text x="44.088" y="1.67" class="d">for</text><text x="48.096" y="1.67" class="d">National</text><text x="57.114" y="1.67" class="d">Rail</text><text x="62.124" y="1.67" class="d">(UK).</text></symbol><symbol id="a"><path fill="transparent" d="M0 0h90v18H0z"/></symbol><symbol id="b"><path fill="#6f7683" d="M0 0h1.102v2.171H0z"/></symbol></defs><path class="a" d="M0 0h90v39.078H0z"/><g style="animation-duration:7.392503s;animation-iteration-count:infinite;animation-name:h;animation-timing-function:steps(1,end)"><svg width="1350"><svg><use xlink:href="#a"/><use xlink:href="#b" x="-.004"/></svg><svg x="90"><use xlink:href="#a"/><use xlink:href="#b" x="31.996"/><use xlink:href="#1"/></svg><svg x="180"><use xlink:href="#a"/><use xlink:href="#b" x="32.996"/><text y="1.67" class="c">seb@departure</text><text x="13.026" y="1.67" class="d">:</text><text x="14.028" y="1.67" class="e">~/departure-demo</text><text x="30.06" y="1.67" class="d">$</text><text x="32.064" y="1.67" class="d">d</text></svg><svg x="270"><use xlink:href="#a"/><use xlink:href="#b" x="33.996"/><text y="1.67" class="c">seb@departure</text><text x="13.026" y="1.67" class="d">:</text><text x="14.028" y="1.67" class="e">~/departure-demo</text><text x="30.06" y="1.67" class="d">$</text><text x="32.064" y="1.67" class="d">de</text></svg><svg x="360"><use xlink:href="#a"/><use xlink:href="#b" x="34.996"/><text y="1.67" class="c">seb@departure</text><text x="13.026" y="1.67" class="d">:</text><text x="14.028" y="1.67" class="e">~/departure-demo</text><text x="30.06" y="1.67" class="d">$</text><text x="32.064" y="1.67" class="d">dep</text></svg><svg x="450"><use xlink:href="#a"/><use xlink:href="#b" x="35.996"/><text y="1.67" class="c">seb@departure</text><text x="13.026" y="1.67" class="d">:</text><text x="14.028" y="1.67" class="e">~/departure-demo</text><text x="30.06" y="1.67" class="d">$</text><text x="32.064" y="1.67" class="d">depa</text></svg><svg x="540"><use xlink:href="#a"/><use xlink:href="#b" x="36.996"/><text y="1.67" class="c">seb@departure</text><text x="13.026" y="1.67" class="d">:</text><text x="14.028" y="1.67" class="e">~/departure-demo</text><text x="30.06" y="1.67" class="d">$</text><text x="32.064" y="1.67" class="d">depar</text></svg><svg x="630"><use xlink:href="#a"/><use xlink:href="#b" x="37.996"/><text y="1.67" class="c">seb@departure</text><text x="13.026" y="1.67" class="d">:</text><text x="14.028" y="1.67" class="e">~/departure-demo</text><text x="30.06" y="1.67" class="d">$</text><text x="32.064" y="1.67" class="d">depart</text></svg><svg x="720"><use xlink:href="#a"/><use xlink:href="#b" x="38.996"/><text y="1.67" class="c">seb@departure</text><text x="13.026" y="1.67" class="d">:</text><text x="14.028" y="1.67" class="e">~/departure-demo</text><text x="30.06" y="1.67" class="d">$</text><text x="32.064" y="1.67" class="d">departu</text></svg><svg x="810"><use xlink:href="#a"/><use xlink:href="#b" x="39.996"/><text y="1.67" class="c">seb@departure</text><text x="13.026" y="1.67" class="d">:</text><text x="14.028" y="1.67" class="e">~/departure-demo</text><text x="30.06" y="1.67" class="d">$</text><text x="32.064" y="1.67" class="d">departur</text></svg><svg x="900"><use xlink:href="#a"/><use xlink:href="#b" x="40.996"/><use xlink:href="#2"/></svg><svg x="990"><use xlink:href="#a"/><use xlink:href="#b" x="-.004" y="2.146"/><use xlink:href="#2"/></svg><svg x="1080"><use xlink:href="#a"/><use xlink:href="#b" x="-.004" y="34.711"/><use xlink:href="#2"/><use xlink:href="#3" y="2.171"/><use xlink:href="#4" y="6.513"/><use xlink:href="#5" y="8.684"/><use xlink:href="#6" y="13.026"/><use xlink:href="#7" y="15.197"/><use xlink:href="#8" y="19.539"/><use xlink:href="#9" y="21.71"/><use xlink:href="#10" y="23.881"/><use xlink:href="#11" y="26.052"/><use xlink:href="#12" y="28.223"/><use xlink:href="#13" y="30.394"/><use xlink:href="#14" y="32.565"/></svg><svg x="1170"><use xlink:href="#a"/><use xlink:href="#b" x="31.996" y="34.711"/><use xlink:href="#2"/><use xlink:href="#3" y="2.171"/><use xlink:href="#4" y="6.513"/><use xlink:href="#5" y="8.684"/><use xlink:href="#6" y="13.026"/><use xlink:href="#7" y="15.197"/><use xlink:href="#8" y="19.539"/><use xlink:href="#9" y="21.71"/><use xlink:href="#10" y="23.881"/><use xlink:href="#11" y="26.052"/><use xlink:href="#12" y="28.223"/><use xlink:href="#13" y="30.394"/><use xlink:href="#14" y="32.565"/><use xlink:href="#1" y="34.736"/></svg><svg x="1260"><use xlink:href="#a"/><use xlink:href="#b" x="-.004" y="36.882"/><use xlink:href="#2"/><use xlink:href="#3" y="2.171"/><use xlink:href="#4" y="6.513"/><use xlink:href="#5" y="8.684"/><use xlink:href="#6" y="13.026"/><use xlink:href="#7" y="15.197"/><use xlink:href="#8" y="19.539"/><use xlink:href="#9" y="21.71"/><use xlink:href="#10" y="23.881"/><use xlink:href="#11" y="26.052"/><use xlink:href="#12" y="28.223"/><use xlink:href="#13" y="30.394"/><use xlink:href="#14" y="32.565"/><text y="36.406" class="c">seb@departure</text><text x="13.026" y="36.406" class="d">:</text><text x="14.028" y="36.406" class="e">~/departure-demo</text><text x="30.06" y="36.406" class="d">$</text><text x="32.064" y="36.406" class="d">exit</text></svg></svg></g></g></svg></svg>