<svg xmlns="http://www.w3.org/2000/svg" xmlns:xlink="http://www.w3.org/1999/xlink" width="900" height="477.62"><rect width="900" height="477.62" rx="0" ry="0" class="a"/><svg height="477.62" viewBox="0 0 90 47.762" width="900" xmlns="http://www.w3.org/2000/svg" xmlns:xlink="http://www.w3.org/1999/xlink"><style>@keyframes h{0%{transform:translateX(0)}.2%{transform:translateX(-90px)}8.4%{transform:translateX(-180px)}9.5%{transform:translateX(-270px)}10%{transform:translateX(-360px)}10.6%{transform:translateX(-450px)}11.2%{transform:translateX(-540px)}12.1%{transform:translateX(-630px)}13%{transform:translateX(-720px)}13.7%{transform:translateX(-810px)}14.4%{transform:translateX(-900px)}16.5%{transform:translateX(-990px)}21.8%{transform:translateX(-1080px)}22.7%{transform:translateX(-1170px)}23.8%{transform:translateX(-1260px)}24.6%{transform:translateX(-1350px)}27.3%{transform:translateX(-1440px)}29.2%{transform:translateX(-1530px)}30.1%{transform:translateX(-1620px)}31.3%{transform:translateX(-1710px)}33.1%{transform:translateX(-1800px)}35%{transform:translateX(-1890px)}36.3%{transform:translateX(-1980px)}45.4%{transform:translateX(-2070px)}53.9%{transform:translateX(-2250px)}54.2%{transform:translateX(-2340px)}to{transform:translateX(-2430px)}}.a{fill:#282d35}.c,.d,.e{white-space:pre}.c{fill:#a8cc8c;font-weight:700}.d,.e{fill:#b9c0cb}.e{fill:#71bef2;font-weight:700}</style><g font-family="Monaco,Consolas,Menlo,'Bitstream Vera Sans Mono','Powerline Symbols',monospace" font-size="1.67"><defs><symbol id="1"><text y="1.67" class="c">seb@departure</text><text x="13.026" y="1.67" class="d">:</text><text x="14.028" y="1.67" class="e">~/departure-demo</text><text x="30.06" y="1.67" class="d">$</text></symbol><symbol id="2"><text y="1.67" class="c">seb@departure</text><text x="13.026" y="1.67" class="d">:</text><text x="14.028" y="1.67" class="e">~/departure-demo</text><text x="30.06" y="1.67" class="d">$</text><text x="32.064" y="1.67" class="d">departure</text></symbol><symbol id="3"><text y="1.67" class="c">seb@departure</text><text x="13.026" y="1.67" class="d">:</text><text x="14.028" y="1.67" class="e">~/departure-demo</text><text x="30.06" y="1.67" class="d">$</text><text x="32.064" y="1.67" class="d">departure</text><text x="42.084" y="1.67" class="d">ns</text></symbol><symbol id="4"><text y="1.67" class="c">seb@departure</text><text x="13.026" y="1.67" class="d">:</text><text x="14.028" y="1.67" class="e">~/departure-demo</text><text x="30.06" y="1.67" class="d">$</text><text x="32.064" y="1.67" class="d">departure</text><text x="42.084" y="1.67" class="d">ns</text><text x="45.09" y="1.67" class="d">next</text></symbol><symbol id="5"><text y="1.67" class="c">seb@departure</text><text x="13.026" y="1.67" class="d">:</text><text x="14.028" y="1.67" class="e">~/departure-demo</text><text x="30.06" y="1.67" class="d">$</text><text x="32.064" y="1.67" class="d">departure</text><text x="42.084" y="1.67" class="d">ns</text><text x="45.09" y="1.67" class="d">next</text><text x="50.1" y="1.67" class="d">gvc</text></symbol><symbol id="6"><text y="1.67" class="d">1st</text><text x="4.008" y="1.67" class="d">1879</text><text x="9.018" y="1.67" class="d">Leeuwarden</text><text x="20.04" y="1.67" class="d">21:03</text><text x="26.052" y="1.67" class="d">(Intercity)</text></symbol><symbol id="7"><text x="2.004" y="1.67" class="d">Calling</text><text x="10.02" y="1.67" class="d">at:</text><text x="14.028" y="1.67" class="d">Leiden</text><text x="21.042" y="1.67" class="d">C.</text><text x="24.048" y="1.67" class="d">(21:15</text><text x="31.062" y="1.67" class="d">/</text><text x="33.066" y="1.67" class="d">21:15),</text><text x="41.082" y="1.67" class="d">Schiphol</text><text x="50.1" y="1.67" class="d">Airport</text><text x="58.116" y="1.67" class="d">(21:32</text><text x="65.13" y="1.67" class="d">/</text><text x="67.134" y="1.67" class="d">21:32),</text><text x="75.15" y="1.67" class="d">Amsterdam</text><text x="85.17" y="1.67" class="d">Z.</text><text x="88.176" y="1.67" class="d">(2</text></symbol><symbol id="8"><text y="1.67" class="d">1:40</text><text x="5.01" y="1.67" class="d">/</text><text x="7.014" y="1.67" class="d">21:40),</text><text x="15.03" y="1.67" class="d">Almere</text><text x="22.044" y="1.67" class="d">C.</text><text x="25.05" y="1.67" class="d">(22:01</text><text x="32.064" y="1.67" class="d">/</text><text x="34.068" y="1.67" class="d">22:01),</text><text x="42.084" y="1.67" class="d">Lelystad</text><text x="51.102" y="1.67" class="d">C.</text><text x="54.108" y="1.67" class="d">(22:16</text><text x="61.122" y="1.67" class="d">/</text><text x="63.126" y="1.67" class="d">22:16),</text><text x="71.142" y="1.67" class="d">Zwolle</text><text x="78.156" y="1.67" class="d">(22:43</text><text x="85.17" y="1.67" class="d">/</text><text x="87.174" y="1.67" class="d">22:</text></symbol><symbol id="9"><text y="1.67" class="d">43),</text><text x="5.01" y="1.67" class="d">Meppel</text><text x="12.024" y="1.67" class="d">(23:04</text><text x="19.038" y="1.67" class="d">/</text><text x="21.042" y="1.67" class="d">23:04),</text><text x="29.058" y="1.67" class="d">Steenwijk</text><text x="39.078" y="1.67" class="d">(23:13</text><text x="46.092" y="1.67" class="d">/</text><text x="48.096" y="1.67" class="d">23:13),</text><text x="56.112" y="1.67" class="d">Wolvega</text><text x="64.128" y="1.67" class="d">(23:21</text><text x="71.142" y="1.67" class="d">/</text><text x="73.146" y="1.67" class="d">23:21),</text><text x="81.162" y="1.67" class="d">Heerenvee</text></symbol><symbol id="10"><text y="1.67" class="d">n</text><text x="2.004" y="1.67" class="d">(23:29</text><text x="9.018" y="1.67" class="d">/</text><text x="11.022" y="1.67" class="d">23:29),</text><text x="19.038" y="1.67" class="d">Akkrum</text><text x="26.052" y="1.67" class="d">(23:36</text><text x="33.066" y="1.67" class="d">/</text><text x="35.07" y="1.67" class="d">23:36),</text><text x="43.086" y="1.67" class="d">Grou-Jirnsum</text><text x="56.112" y="1.67" class="d">(23:41</text><text x="63.126" y="1.67" class="d">/</text><text x="65.13" y="1.67" class="d">23:41),</text><text x="73.146" y="1.67" class="d">Leeuwarden</text><text x="84.168" y="1.67" class="d">(23:51</text></symbol><symbol id="11"><text x="1.002" y="1.67" class="d">/</text><text x="3.006" y="1.67" class="d">23:51)</text></symbol><symbol id="12"><text y="1.67" class="d">2nd</text><text x="4.008" y="1.67" class="d">4683</text><text x="9.018" y="1.67" class="d">Amsterdam</text><text x="19.038" y="1.67" class="d">Centraal</text><text x="28.056" y="1.67" class="d">21:08</text><text x="34.068" y="1.67" class="d">(Sprinter)</text></symbol><symbol id="13"><text y="1.67" class="d">3rd</text><text x="4.008" y="1.67" class="d">980127</text><text x="11.022" y="1.67" class="d">Gouda</text><text x="17.034" y="1.67" class="d">21:13</text><text x="23.046" y="1.67" class="d">(Stopbus</text><text x="32.064" y="1.67" class="d">i.p.v.</text><text x="39.078" y="1.67" class="d">trein)</text></symbol><symbol id="14"><text y="1.67" class="d">4th</text><text x="4.008" y="1.67" class="d">2170</text><text x="9.018" y="1.67" class="d">Amsterdam</text><text x="19.038" y="1.67" class="d">Centraal</text><text x="28.056" y="1.67" class="d">21:17</text><text x="34.068" y="1.67" class="d">(Intercity)</text></symbol><symbol id="15"><text y="1.67" class="d">5th</text><text x="4.008" y="1.67" class="d">1181</text><text x="9.018" y="1.67" class="d">Eindhoven</text><text x="19.038" y="1.67" class="d">Centraal</text><text x="28.056" y="1.67" class="d">21:17</text><text x="34.068" y="1.67" class="d">(Intercity)</text></symbol><symbol id="16"><text y="1.67" class="d">6th</text><text x="4.008" y="1.67" class="d">5183</text><text x="9.018" y="1.67" class="d">Dordrecht</text><text x="19.038" y="1.67" class="d">21:24</text><text x="25.05" y="1.67" class="d">(Sprinter)</text></symbol><symbol id="17"><text y="1.67" class="d">7th</text><text x="4.008" y="1.67" class="d">781</text><text x="8.016" y="1.67" class="d">Groningen</text><text x="18.036" y="1.67" class="d">21:33</text><text x="24.048" y="1.67" class="d">(Intercity)</text></symbol><symbol id="18"><text y="1.67" class="d">8th</text><text x="4.008" y="1.67" class="d">4685</text><text x="9.018" y="1.67" class="d">Amsterdam</text><text x="19.038" y="1.67" class="d">Centraal</text><text x="28.056" y="1.67" class="d">21:38</text><text x="34.068" y="1.67" class="d">(Sprinter)</text></symbol><symbol id="19"><text y="1.67" class="d">9th</text><text x="4.008" y="1.67" class="d">980128</text><text x="11.022" y="1.67" class="d">Gouda</text><text x="17.034" y="1.67" class="d">21:43</text><text x="23.046" y="1.67" class="d">(Stopbus</text><text x="32.064" y="1.67" class="d">i.p.v.</text><text x="39.078" y="1.67" class="d">trein)</text></symbol><symbol id="20"><text y="1.67" class="d">10th</text><text x="5.01" y="1.67" class="d">2172</text><text x="10.02" y="1.67" class="d">Amsterdam</text><text x="20.04" y="1.67" class="d">Centraal</text><text x="29.058" y="1.67" class="d">21:47</text><text x="35.07" y="1.67" class="d">(Intercity)</text></symbol><symbol id="21"><text y="1.67" class="d">11th</text><text x="5.01" y="1.67" class="d">1183</text><text x="10.02" y="1.67" class="d">Eindhoven</text><text x="20.04" y="1.67" class="d">Centraal</text><text x="29.058" y="1.67" class="d">21:47</text><text x="35.07" y="1.67" class="d">(Intercity)</text></symbol><symbol id="22"><text y="1.67" class="d">12th</text><text x="5.01" y="1.67" class="d">5185</text><text x="10.02" y="1.67" class="d">Dordrecht</text><text x="20.04" y="1.67" class="d">21:54</text><text x="26.052" y="1.67" class="d">(Sprinter)</text></symbol><symbol id="23"><text y="1.67" class="d">13th</text><text x="5.01" y="1.67" class="d">1883</text><text x="10.02" y="1.67" class="d">Leeuwarden</text><text x="21.042" y="1.67" class="d">22:03</text><text x="27.054" y="1.67" class="d">(Intercity)</text></symbol><symbol id="24"><text y="1.67" class="d">14th</text><text x="5.01" y="1.67" class="d">4687</text><text x="10.02" y="1.67" class="d">Amsterdam</text><text x="20.04" y="1.67" class="d">Centraal</text><text x="29.058" y="1.67" class="d">22:08</text><text x="35.07" y="1.67" class="d">(Sprinter)</text></symbol><symbol id="a"><path fill="transparent" d="M0 0h90v22H0z"/></symbol><symbol id="b"><path fill="#6f7683" d="M0 0h1.102v2.171H0z"/></symbol></defs><path class="a" d="M0 0h90v47.762H0z"/><g style="animation-duration:12.392503s;animation-iteration-count:infinite;animation-name:h;animation-timing-function:steps(1,end)"><svg width="2520"><svg><use xlink:href="#a"/><use xlink:href="#b" x="-.004"/></svg><svg x="90"><use xlink:href="#a"/><use xlink:href="#b" x="31.996"/><use xlink:href="#1"/></svg><svg x="180"><use xlink:href="#a"/><use xlink:href="#b" x="32.996"/><text y="1.67" class="c">seb@departure</text><text x="13.026" y="1.67" class="d">:</text><text x="14.028" y="1.67" class="e">~/departure-demo</text><text x="30.06" y="1.67" class="d">$</text><text x="32.064" y="1.67" class="d">d</text></svg><svg x="270"><use xlink:href="#a"/><use xlink:href="#b" x="33.996"/><text y="1.67" class="c">seb@departure</text><text x="13.026" y="1.67" class="d">:</text><text x="14.028" y="1.67" class="e">~/departure-demo</text><text x="30.06" y="1.67" class="d">$</text><text x="32.064" y="1.67" class="d">de</text></svg><svg x="360"><use xlink:href="#a"/><use xlink:href="#b" x="34.996"/><text y="1.67" class="c">seb@departure</text><text x="13.026" y="1.67" class="d">:</text><text x="14.028" y="1.67" class="e">~/departure-demo</text><text x="30.06" y="1.67" class="d">$</text><text x="32.064" y="1.67" class="d">dep</text></svg><svg x="450"><use xlink:href="#a"/><use xlink:href="#b" x="35.996"/><text y="1.67" class="c">seb@departure</text><text x="13.026" y="1.67" class="d">:</text><text x="14.028" y="1.67" class="e">~/departure-demo</text><text x="30.06" y="1.67" class="d">$</text><text x="32.064" y="1.67" class="d">depa</text></svg><svg x="540"><use xlink:href="#a"/><use xlink:href="#b" x="36.996"/><text y="1.67" class="c">seb@departure</text><text x="13.026" y="1.67" class="d">:</text><text x="14.028" y="1.67" class="e">~/departure-demo</text><text x="30.06" y="1.67" class="d">$</text><text x="32.064" y="1.67" class="d">depar</text></svg><svg x="630"><use xlink:href="#a"/><use xlink:href="#b" x="37.996"/><text y="1.67" class="c">seb@departure</text><text x="13.026" y="1.67" class="d">:</text><text x="14.028" y="1.67" class="e">~/departure-demo</text><text x="30.06" y="1.67" class="d">$</text><text x="32.064" y="1.67" class="d">depart</text></svg><svg x="720"><use xlink:href="#a"/><use xlink:href="#b" x="38.996"/><text y="1.67" class="c">seb@departure</text><text x="13.026" y="1.67" class="d">:</text><text x="14.028" y="1.67" class="e">~/departure-demo</text><text x="30.06" y="1.67" class="d">$</text><text x="32.064" y="1.67" class="d">departu</text></svg><svg x="810"><use xlink:href="#a"/><use xlink:href="#b" x="39.996"/><text y="1.67" class="c">seb@departure</text><text x="13.026" y="1.67" class="d">:</text><text x="14.028" y="1.67" class="e">~/departure-demo</text><text x="30.06" y="1.67" class="d">$</text><text x="32.064" y="1.67" class="d">departur</text></svg><svg x="900"><use xlink:href="#a"/><use xlink:href="#b" x="40.996"/><use xlink:href="#2"/></svg><svg x="990"><use xlink:href="#a"/><use xlink:href="#b" x="41.996"/><use xlink:href="#2"/></svg><svg x="1080"><use xlink:href="#a"/><use xlink:href="#b" x="42.996"/><text y="1.67" class="c">seb@departure</text><text x="13.026" y="1.67" class="d">:</text><text x="14.028" y="1.67" class="e">~/departure-demo</text><text x="30.06" y="1.67" class="d">$</text><text x="32.064" y="1.67" class="d">departure</text><text x="42.084" y="1.67" class="d">n</text></svg><svg x="1170"><use xlink:href="#a"/><use xlink:href="#b" x="43.996"/><use xlink:href="#3"/></svg><svg x="1260"><use xlink:href="#a"/><use xlink:href="#b" x="44.996"/><use xlink:href="#3"/></svg><svg x="1350"><use xlink:href="#a"/><use xlink:href="#b" x="45.996"/><text y="1.67" class="c">seb@departure</text><text x="13.026" y="1.67" class="d">:</text><text x="14.028" y="1.67" class="e">~/departure-demo</text><text x="30.06" y="1.67" class="d">$</text><text x="32.064" y="1.67" class="d">departure</text><text x="42.084" y="1.67" class="d">ns</text><text x="45.09" y="1.67" class="d">n</text></svg><svg x="1440"><use xlink:href="#a"/><use xlink:href="#b" x="46.996"/><text y="1.67" class="c">seb@departure</text><text x="13.026" y="1.67" class="d">:</text><text x="14.028" y="1.67" class="e">~/departure-demo</text><text x="30.06" y="1.67" class="d">$</text><text x="32.064" y="1.67" class="d">departure</text><text x="42.084" y="1.67" class="d">ns</text><text x="45.09" y="1.67" class="d">ne</text></svg><svg x="1530"><use xlink:href="#a"/><use xlink:href="#b" x="47.996"/><text y="1.67" class="c">seb@departure</text><text x="13.026" y="1.67" class="d">:</text><text x="14.028" y="1.67" class="e">~/departure-demo</text><text x="30.06" y="1.67" class="d">$</text><text x="32.064" y="1.67" class="d">departure</text><text x="42.084" y="1.67" class="d">ns</text><text x="45.09" y="1.67" class="d">nex</text></svg><svg x="1620"><use xlink:href="#a"/><use xlink:href="#b" x="48.996"/><use xlink:href="#4"/></svg><svg x="1710"><use xlink:href="#a"/><use xlink:href="#b" x="49.996"/><use xlink:href="#4"/></svg><svg x="1800"><use xlink:href="#a"/><use xlink:href="#b" x="50.996"/><text y="1.67" class="c">seb@departure</text><text x="13.026" y="1.67" class="d">:</text><text x="14.028" y="1.67" class="e">~/departure-demo</text><text x="30.06" y="1.67" class="d">$</text><text x="32.064" y="1.67" class="d">departure</text><text x="42.084" y="1.67" class="d">ns</text><text x="45.09" y="1.67" class="d">next</text><text x="50.1" y="1.67" class="d">g</text></svg><svg x="1890"><use xlink:href="#a"/><use xlink:href="#b" x="51.996"/><text y="1.67" class="c">seb@departure</text><text x="13.026" y="1.67" class="d">:</text><text x="14.028" y="1.67" class="e">~/departure-demo</text><text x="30.06" y="1.67" class="d">$</text><text x="32.064" y="1.67" class="d">departure</text><text x="42.084" y="1.67" class="d">ns</text><text x="45.09" y="1.67" class="d">next</text><text x="50.1" y="1.67" class="d">gv</text></svg><svg x="1980"><use xlink:href="#a"/><use xlink:href="#b" x="52.996"/><use xlink:href="#5"/></svg><svg x="2070"><use xlink:href="#a"/><use xlink:href="#b" x="-.004" y="2.146"/><use xlink:href="#5"/></svg><svg x="2160"><use xlink:href="#a"/><use xlink:href="#b" x="-.004" y="23.856"/><use xlink:href="#5"/><use xlink:href="#6" y="2.171"/><use xlink:href="#7" y="4.342"/><use xlink:href="#8" y="6.513"/><use xlink:href="#9" y="8.684"/><use xlink:href="#10" y="10.855"/><use xlink:href="#11" y="13.026"/><use xlink:href="#12" y="15.197"/><use xlink:href="#13" y="17.368"/><use xlink:href="#14" y="19.539"/><use xlink:href="#15" y="21.71"/></svg><svg x="2250"><use xlink:href="#a"/><use xlink:href="#b" x="-.004" y="43.395"/><use xlink:href="#5"/><use xlink:href="#6" y="2.171"/><use xlink:href="#7" y="4.342"/><use xlink:href="#8" y="6.513"/><use xlink:href="#9" y="8.684"/><use xlink:href="#10" y="10.855"/><use xlink:href="#11" y="13.026"/><use xlink:href="#12" y="15.197"/><use xlink:href="#13" y="17.368"/><use xlink:href="#14" y="19.539"/><use xlink:href="#15" y="21.71"/><use xlink:href="#16" y="23.881"/><use xlink:href="#17" y="26.052"/><use xlink:href="#18" y="28.223"/><use xlink:href="#19" y="30.394"/><use xlink:href="#20" y="32.565"/><use xlink:href="#21" y="34.736"/><use xlink:href="#22" y="36.907"/><use xlink:href="#23" y="39.078"/><use xlink:href="#24" y="41.249"/></svg><svg x="2340"><use xlink:href="#a"/><use xlink:href="#b" x="31.996" y="43.395"/><use xlink:href="#5"/><use xlink:href="#6" y="2.171"/><use xlink:href="#7" y="4.342"/><use xlink:href="#8" y="6.513"/><use xlink:href="#9" y="8.684"/><use xlink:href="#10" y="10.855"/><use xlink:href="#11" y="13.026"/><use xlink:href="#12" y="15.197"/><use xlink:href="#13" y="17.368"/><use xlink:href="#14" y="19.539"/><use xlink:href="#15" y="21.71"/><use xlink:href="#16" y="23.881"/><use xlink:href="#17" y="26.052"/><use xlink:href="#18" y="28.223"/><use xlink:href="#19" y="30.394"/><use xlink:href="#20" y="32.565"/><use xlink:href="#21" y="34.736"/><use xlink:href="#22" y="36.907"/><use xlink:href="#23" y="39.078"/><use xlink:href="#24" y="41.249"/><use xlink:href="#1" y="43.42"/></svg><svg x="2430"><use xlink:href="#a"/><use xlink:href="#b" x="-.004" y="45.566"/><use xlink:href="#5"/><use xlink:href="#6" y="2.171"/><use xlink:href="#7" y="4.342"/><use xlink:href="#8" y="6.513"/><use xlink:href="#9" y="8.684"/><use xlink:href="#10" y="10.855"/><use xlink:href="#11" y="13.026"/><use xlink:href="#12" y="15.197"/><use xlink:href="#13" y="17.368"/><use xlink:href="#14" y="19.539"/><use xlink:href="#15" y="21.71"/><use xlink:href="#16" y="23.881"/><use xlink:href="#17" y="26.052"/><use xlink:href="#18" y="28.223"/><use xlink:href="#19" y="30.394"/><use xlink:href="#20" y="32.565"/><use xlink:href="#21" y="34.736"/><use xlink:href="#22" y="36.907"/><use xlink:href="#23" y="39.078"/><use xlink:href="#24" y="41.249"/><text y="45.09" class="c">seb@departure</text><text x="13.026" y="45.09" class="d">:</text><text x="14.028" y="45.09" class="e">~/departure-demo</text><text x="30.06" y="45.09" class="d">$</text><text x="32.064" y="45.09" class="d">exit</text></svg></svg></g></g></svg></svg>